<?xml version="1.0" encoding="UTF-8" standalone="no" ?>
<!DOCTYPE svg PUBLIC "-//W3C//DTD SVG 1.1//EN" "http://www.w3.org/Graphics/SVG/1.1/DTD/svg11.dtd">
<svg xmlns="http://www.w3.org/2000/svg" xmlns:xlink="http://www.w3.org/1999/xlink" version="1.1" width="515" height="117" viewBox="0 0 515 117" xml:space="preserve">
<desc>Created with Fabric.js 3.6.3</desc>
<defs>
</defs>
<g transform="matrix(1.65 0 0 1.65 257.62 58.53)"  >
<g style=""   >
		<g transform="matrix(0.13 0 0 -0.13 -138.02 -17.01)" id="path16"  >
<path style="stroke: none; stroke-width: 1; stroke-dasharray: none; stroke-linecap: butt; stroke-dashoffset: 0; stroke-linejoin: miter; stroke-miterlimit: 4; fill: rgb(138,39,144); fill-rule: nonzero; opacity: 1;"  transform=" translate(-657.06, -905.38)" d="m 598.398 964.047 c 7.192 7.187 19.739 6.422 27.887 -1.723 l 87.707 -87.734 c 8.149 -8.129 8.934 -20.695 1.738 -27.871 c -7.195 -7.199 -19.734 -6.406 -27.894 1.703 l -87.723 87.746 c -8.133 8.125 -8.918 20.68 -1.715 27.879" stroke-linecap="round" />
</g>
		<g transform="matrix(0.13 0 0 -0.13 -104.73 16.28)" id="path18"  >
<path style="stroke: none; stroke-width: 1; stroke-dasharray: none; stroke-linecap: butt; stroke-dashoffset: 0; stroke-linejoin: miter; stroke-miterlimit: 4; fill: rgb(138,39,144); fill-rule: nonzero; opacity: 1;"  transform=" translate(-906.72, -655.73)" d="m 848.301 714.141 c 7.187 7.199 19.742 6.418 27.887 -1.731 l 87.214 -87.234 c 8.157 -8.125 8.934 -20.672 1.739 -27.863 c -7.196 -7.208 -19.735 -6.415 -27.883 1.718 l -87.238 87.207 c -8.145 8.176 -8.911 20.703 -1.719 27.903" stroke-linecap="round" />
</g>
		<g transform="matrix(0.13 0 0 -0.13 -131.77 -21.17)" id="path20"  >
<path style="stroke: none; stroke-width: 1; stroke-dasharray: none; stroke-linecap: butt; stroke-dashoffset: 0; stroke-linejoin: miter; stroke-miterlimit: 4; fill: rgb(91,43,138); fill-rule: nonzero; opacity: 1;"  transform=" translate(-703.93, -936.58)" d="m 642.582 998.105 c 7.191 7.205 19.738 6.415 27.871 -1.71 l 92.598 -92.582 c 8.148 -8.165 9.793 -21.567 2.597 -28.77 c -7.195 -7.188 -19.742 -6.422 -27.89 1.719 l -93.457 93.449 c -8.141 8.152 -8.914 20.703 -1.719 27.894" stroke-linecap="round" />
</g>
		<g transform="matrix(0.13 0 0 -0.13 -105.63 -16.07)" id="path22"  >
<path style="stroke: none; stroke-width: 1; stroke-dasharray: none; stroke-linecap: butt; stroke-dashoffset: 0; stroke-linejoin: miter; stroke-miterlimit: 4; fill: rgb(48,161,155); fill-rule: nonzero; opacity: 1;"  transform=" translate(-899.96, -898.28)" d="m 764.609 1033.63 c 7.204 7.19 19.75 6.42 27.891 -1.72 l 241.09 -241.09 c 8.14 -8.144 8.91 -20.699 1.73 -27.882 c -7.19 -7.2 -19.74 -6.418 -27.87 1.718 L 766.34 1005.75 c -8.149 8.13 -8.914 20.68 -1.731 27.88" stroke-linecap="round" />
</g>
		<g transform="matrix(0.13 0 0 -0.13 -100.57 10)" id="path24"  >
<path style="stroke: none; stroke-width: 1; stroke-dasharray: none; stroke-linecap: butt; stroke-dashoffset: 0; stroke-linejoin: miter; stroke-miterlimit: 4; fill: rgb(91,43,138); fill-rule: nonzero; opacity: 1;"  transform=" translate(-937.9, -702.79)" d="m 876.547 764.145 c 7.191 7.199 19.746 6.418 27.891 -1.735 l 93.085 -93.094 c 8.157 -8.144 8.927 -20.671 1.723 -27.89 c -7.18 -7.18 -19.73 -6.438 -27.863 1.726 L 878.27 736.27 c -8.149 8.125 -8.918 20.687 -1.723 27.875" stroke-linecap="round" />
</g>
		<g transform="matrix(0.13 0 0 -0.13 -110.94 -10.8)" id="path26"  >
<path style="stroke: none; stroke-width: 1; stroke-dasharray: none; stroke-linecap: butt; stroke-dashoffset: 0; stroke-linejoin: miter; stroke-miterlimit: 4; fill: rgb(43,110,191); fill-rule: nonzero; opacity: 1;"  transform=" translate(-860.13, -858.82)" d="m 696.543 1022.4 c 7.191 7.21 19.742 6.42 27.891 -1.74 L 1022 723.113 c 8.13 -8.14 8.91 -20.679 1.72 -27.879 c -7.2 -7.199 -19.75 -6.418 -27.884 1.719 L 698.266 994.52 c -8.137 8.14 -8.911 20.69 -1.723 27.88" stroke-linecap="round" />
</g>
		<g transform="matrix(0.13 0 0 -0.13 -100.49 -21.35)" id="path28"  >
<path style="stroke: none; stroke-width: 1; stroke-dasharray: none; stroke-linecap: butt; stroke-dashoffset: 0; stroke-linejoin: miter; stroke-miterlimit: 4; fill: rgb(42,179,76); fill-rule: nonzero; opacity: 1;"  transform=" translate(-938.56, -937.94)" d="m 861.348 1015.14 c 7.203 7.2 19.746 6.42 27.898 -1.7 L 1014.04 888.617 c 8.14 -8.144 8.91 -20.687 1.72 -27.875 c -7.2 -7.191 -19.74 -6.426 -27.885 1.715 L 863.082 987.25 c -8.141 8.16 -8.906 20.7 -1.734 27.89" stroke-linecap="round" />
</g>
		<g transform="matrix(0.13 0 0 -0.13 -142.32 -10.51)" id="path30"  >
<path style="stroke: none; stroke-width: 1; stroke-dasharray: none; stroke-linecap: butt; stroke-dashoffset: 0; stroke-linejoin: miter; stroke-miterlimit: 4; fill: rgb(212,15,134); fill-rule: nonzero; opacity: 1;"  transform=" translate(-624.79, -856.63)" d="m 562.914 918.516 c -7.191 -7.2 -6.43 -19.743 1.719 -27.879 l 94.156 -94.153 c 8.149 -8.16 20.699 -8.929 27.887 -1.738 c 7.203 7.211 6.414 19.746 -1.719 27.899 l -94.156 94.164 c -8.141 8.117 -20.688 8.906 -27.887 1.707" stroke-linecap="round" />
</g>
		<g transform="matrix(0.13 0 0 -0.13 -137.26 15.55)" id="path32"  >
<path style="stroke: none; stroke-width: 1; stroke-dasharray: none; stroke-linecap: butt; stroke-dashoffset: 0; stroke-linejoin: miter; stroke-miterlimit: 4; fill: rgb(245,121,32); fill-rule: nonzero; opacity: 1;"  transform=" translate(-662.73, -661.14)" d="m 526.977 796.895 c -7.204 -7.184 -6.426 -19.754 1.718 -27.868 L 770.613 527.078 c 8.153 -8.117 20.7 -8.887 27.895 -1.707 c 7.183 7.188 6.402 19.75 -1.727 27.867 l -241.918 241.95 c -8.152 8.14 -20.699 8.917 -27.886 1.707" stroke-linecap="round" />
</g>
		<g transform="matrix(0.13 0 0 -0.13 -111.19 20.62)" id="path34"  >
<path style="stroke: none; stroke-width: 1; stroke-dasharray: none; stroke-linecap: butt; stroke-dashoffset: 0; stroke-linejoin: miter; stroke-miterlimit: 4; fill: rgb(212,15,134); fill-rule: nonzero; opacity: 1;"  transform=" translate(-858.27, -623.15)" d="m 796.555 684.863 c -7.2 -7.187 -6.426 -19.734 1.715 -27.859 l 93.835 -93.832 c 8.145 -8.152 20.688 -8.922 27.891 -1.75 c 7.188 7.207 6.41 19.73 -1.73 27.894 l -93.832 93.821 c -8.149 8.152 -20.696 8.933 -27.879 1.726" stroke-linecap="round" />
</g>
		<g transform="matrix(0.13 0 0 -0.13 -132.01 10.23)" id="path36"  >
<path style="stroke: none; stroke-width: 1; stroke-dasharray: none; stroke-linecap: butt; stroke-dashoffset: 0; stroke-linejoin: miter; stroke-miterlimit: 4; fill: rgb(238,70,38); fill-rule: nonzero; opacity: 1;"  transform=" translate(-702.14, -701.05)" d="m 537.961 865.227 c -7.199 -7.207 -6.434 -19.735 1.707 -27.887 L 838.434 538.57 c 8.152 -8.121 20.699 -8.898 27.89 -1.699 c 7.188 7.18 6.414 19.719 -1.73 27.859 L 565.836 863.512 c -8.133 8.125 -20.699 8.91 -27.875 1.715" stroke-linecap="round" />
</g>
		<g transform="matrix(0.13 0 0 -0.13 -142.48 20.77)" id="path38"  >
<path style="stroke: none; stroke-width: 1; stroke-dasharray: none; stroke-linecap: butt; stroke-dashoffset: 0; stroke-linejoin: miter; stroke-miterlimit: 4; fill: rgb(249,168,45); fill-rule: nonzero; opacity: 1;"  transform=" translate(-623.6, -622.03)" d="m 544.508 701.133 c -7.199 -7.207 -6.41 -19.754 1.73 -27.891 L 674.809 544.66 c 8.14 -8.148 20.683 -8.91 27.882 -1.711 c 7.192 7.172 6.414 19.731 -1.73 27.864 L 572.398 699.395 c -8.144 8.144 -20.695 8.925 -27.89 1.738" stroke-linecap="round" />
</g>
		<g transform="matrix(0.13 0 0 -0.13 -34.25 0)" id="path40"  >
<path style="stroke: none; stroke-width: 1; stroke-dasharray: none; stroke-linecap: butt; stroke-dashoffset: 0; stroke-linejoin: miter; stroke-miterlimit: 4; fill: rgb(61,78,85); fill-rule: nonzero; opacity: 1;"  transform=" translate(-1435.33, -777.79)" d="m 1560.88 1035.95 c 7.43 0 11.72 -3.98 10.53 -11.93 l -6.18 -60.989 c -0.64 -7.929 -4.35 -11.238 -11.75 -11.238 h -159.2 V 821.891 h 146.86 c 8.65 0 11.11 -3.996 10.51 -11.293 l -6.81 -60.981 c -0.6 -7.293 -4.32 -10.601 -12.34 -10.601 H 1394.28 V 603.801 h 168.46 c 8.03 0 11.09 -3.313 10.47 -11.938 l -0.36 -60.984 c -0.69 -7.938 -3.72 -11.258 -11.76 -11.258 h -250.12 c -8.65 0 -13.59 3.981 -13.59 14.559 v 487.2 c 0 9.28 3.72 14.57 13.59 14.57 h 249.91" stroke-linecap="round" />
</g>
		<g transform="matrix(0.13 0 0 -0.13 6.34 -0.27)" id="path42"  >
<path style="stroke: none; stroke-width: 1; stroke-dasharray: none; stroke-linecap: butt; stroke-dashoffset: 0; stroke-linejoin: miter; stroke-miterlimit: 4; fill: rgb(61,78,85); fill-rule: nonzero; opacity: 1;"  transform=" translate(-1739.76, -779.82)" d="m 1597.12 903.609 c 0 43.293 14.78 78.008 44.42 103.591 c 27.15 22.94 66.66 36.06 119.12 36.06 c 28.4 0 61.68 -5.24 83.92 -12.43 c 11.12 -3.97 12.34 -9.2 12.34 -18.37 v -52.433 c 0 -11.195 -7.39 -13.804 -18.5 -11.195 c -21.62 5.285 -46.92 9.199 -74.07 9.199 c -22.85 0 -39.47 -3.914 -50.6 -11.129 c -14.83 -9.847 -21.59 -24.937 -21.59 -44.593 v -2.59 c 0 -36.074 14.8 -54.446 53.06 -68.867 l 32.69 -13.125 c 74.05 -29.489 105.54 -70.145 105.54 -142.914 v -6.543 c 0 -107.821 -80.21 -151.891 -188.15 -151.891 c -21.25 0 -56.12 0.562 -82.67 10.43 c -11.1 3.929 -12.96 9.16 -14.8 17.679 l -1.75 49.067 c 0 9.668 4.2 16.152 15.32 13.371 c 32.68 -8.098 62.61 -7.199 80.56 -6.074 c 70.38 4.265 98.31 23.589 98.31 64.793 v 3.293 c 0 35.371 -15.43 57.039 -62.33 74.714 l -29.62 11.172 c -62.92 23.574 -101.2 69.485 -101.2 144.199 v 4.586" stroke-linecap="round" />
</g>
		<g transform="matrix(0.13 0 0 -0.13 48.14 0)" id="path44"  >
<path style="stroke: none; stroke-width: 1; stroke-dasharray: none; stroke-linecap: butt; stroke-dashoffset: 0; stroke-linejoin: miter; stroke-miterlimit: 4; fill: rgb(61,78,85); fill-rule: nonzero; opacity: 1;"  transform=" translate(-2053.24, -777.79)" d="m 1997.83 701.902 c 0 -35.789 5.55 -62.293 20.99 -79.547 c 15.41 -16.574 41.34 -24.535 75.9 -24.535 c 35.16 0 71.6 9.297 96.89 19.914 c 6.15 2.61 16.03 -0.683 13.55 -11.953 l -9.83 -58.972 c -1.87 -11.278 -6.19 -15.258 -14.23 -18.547 c -25.91 -9.953 -61.06 -15.942 -103.05 -15.942 c -64.17 0 -107.99 14.559 -136.39 42.442 c -29 28.5 -40.74 72.894 -40.74 139.203 v 169.68 c 0 121.281 56.81 179.615 179.58 179.615 c 37.07 0 79.64 -5.92 106.79 -15.24 c 9.27 -3.32 11.11 -7.98 11.11 -17.89 v -54.36 c 0 -11.993 -4.34 -14.586 -17.92 -10.637 c -22.2 5.976 -57.99 11.976 -86.99 11.976 c -68.5 0 -95.66 -31.836 -95.66 -105.414 V 701.902" stroke-linecap="round" />
</g>
		<g transform="matrix(0.13 0 0 -0.13 93.76 0)" id="path46"  >
<path style="stroke: none; stroke-width: 1; stroke-dasharray: none; stroke-linecap: butt; stroke-dashoffset: 0; stroke-linejoin: miter; stroke-miterlimit: 4; fill: rgb(61,78,85); fill-rule: nonzero; opacity: 1;"  transform=" translate(-2395.44, -777.79)" d="m 2332.9 793.352 h 47.54 c 28.99 0 44.42 3.328 56.15 14.632 c 12.36 11.903 16.67 32.465 16.67 64.946 v 5.953 c 0 28.5 -4.93 48.363 -17.29 59.637 c -11.73 10.621 -30.26 14.621 -57.39 14.621 h -45.68 z m 58.62 242.598 c 100.6 0 159.83 -40.407 159.83 -153.098 v -11.266 c 0 -81.52 -38.23 -134.535 -90.7 -151.164 c 27.15 -49.652 66.05 -126.555 91.97 -184.25 c 3.68 -8.59 1.84 -16.551 -12.99 -16.551 h -66.01 c -12.36 0 -16.69 2.649 -20.98 11.93 c -21.6 51.711 -50.63 117.336 -81.47 178.957 H 2332.9 V 531.551 c 0 -7.281 -3.72 -11.93 -11.08 -11.93 h -74.67 c -7.42 0 -10.52 4.649 -10.52 11.93 v 492.469 c 0 6.64 3.7 11.93 10.52 11.93 h 144.37" stroke-linecap="round" />
</g>
		<g transform="matrix(0.13 0 0 -0.13 135.07 0)" id="path48"  >
<path style="stroke: none; stroke-width: 1; stroke-dasharray: none; stroke-linecap: butt; stroke-dashoffset: 0; stroke-linejoin: miter; stroke-miterlimit: 4; fill: rgb(61,78,85); fill-rule: nonzero; opacity: 1;"  transform=" translate(-2705.2, -777.79)" d="m 2576.04 902.066 c 0 43.789 14.81 78.879 44.43 104.734 c 27.17 23.18 66.67 36.46 119.1 36.46 c 28.39 0 61.73 -5.31 83.96 -12.6 c 11.07 -3.96 12.35 -9.28 12.35 -18.52 v -53.093 c 0 -11.258 -7.44 -13.914 -18.55 -11.258 c -21.57 5.352 -46.89 9.32 -74.07 9.32 c -22.79 0 -39.46 -3.968 -50.59 -11.254 c -14.82 -9.996 -21.58 -25.195 -21.58 -45.085 v -2.645 c 0 -36.488 14.8 -55.02 53.05 -69.633 l 32.72 -13.219 c 74.05 -29.847 105.51 -70.976 105.51 -144.503 v -6.661 c 0 -91.48 -61.07 -151.789 -165.38 -151.789 c -33.33 0 -75.29 6.641 -101.83 16.602 c -11.12 3.949 -10.43 8.269 -14.79 17.887 l -32.19 75.183 c -1.22 9.27 4.93 12.578 15.42 7.949 c 24.68 -11.308 88.35 -31.445 123.54 -31.445 c 53.65 0 82.07 23.176 82.07 62.957 v 3.332 c 0 35.781 -15.43 57.688 -62.35 75.567 l -29.61 11.234 c -62.93 23.894 -101.21 70.305 -101.21 145.82 v 4.66" stroke-linecap="round" />
</g>
</g>
</g>
</svg>